<?xml version="1.0" standalone="no"?>
<!DOCTYPE svg PUBLIC "-//W3C//DTD SVG 20010904//EN"
 "http://www.w3.org/TR/2001/REC-SVG-20010904/DTD/svg10.dtd">
<svg version="1.0" xmlns="http://www.w3.org/2000/svg"
 width="300.000000pt" height="153.000000pt" viewBox="0 0 300.000000 153.000000"
 preserveAspectRatio="xMidYMid meet">
<metadata>
Created by potrace 1.10, written by Peter Selinger 2001-2011
</metadata>
<g transform="translate(0.000000,153.000000) scale(0.100000,-0.100000)"
fill="#000000" stroke="none">
<path d="M206 1519 c-84 -20 -175 -106 -195 -184 -15 -61 -15 -1079 0 -1141
15 -57 83 -134 147 -166 l47 -23 1295 0 1295 0 45 24 c58 30 106 76 133 126
22 40 22 45 22 610 0 565 0 570 -22 610 -27 50 -75 96 -133 126 l-45 24 -1275
2 c-754 1 -1291 -3 -1314 -8z m2582 -24 c69 -21 131 -70 161 -130 l26 -49 0
-551 0 -551 -26 -49 c-14 -28 -44 -64 -68 -82 -87 -67 -16 -64 -1402 -61
l-1254 3 -50 23 c-60 28 -100 64 -128 117 -22 40 -22 45 -22 600 l0 560 28 47
c33 58 82 96 150 119 49 17 128 18 1293 19 1083 0 1247 -2 1292 -15z"/>
<path d="M300 1128 l0 -148 365 0 365 0 0 148 0 147 -365 0 -365 0 0 -147z
m698 113 c6 -4 10 -50 9 -116 l-2 -110 -334 -3 c-261 -2 -336 1 -343 10 -13
20 -8 212 6 221 13 9 649 7 664 -2z"/>
<path d="M1240 1026 l0 -216 29 0 28 0 -5 96 -5 97 48 -5 c26 -3 54 -13 62
-21 9 -8 23 -48 33 -89 16 -70 18 -73 48 -76 l31 -3 -13 43 c-8 24 -19 62 -25
86 -7 24 -21 50 -31 59 -18 15 -17 17 16 48 29 28 34 39 34 79 0 36 -6 52 -29
78 -29 32 -31 33 -125 36 l-96 4 0 -216z m175 149 c16 -15 25 -36 25 -55 0
-49 -38 -80 -100 -80 l-50 0 0 73 c0 41 3 77 7 80 3 4 26 7 50 7 33 0 50 -6
68 -25z"/>
<path d="M1570 1025 l0 -215 115 0 115 0 0 25 c0 25 -1 25 -90 25 l-90 0 0 75
0 75 80 0 c80 0 80 0 80 26 l0 26 -80 -4 -80 -3 0 67 0 68 85 0 c84 0 85 0 85
25 l0 25 -110 0 -110 0 0 -215z"/>
<path d="M1850 1025 l0 -215 25 0 25 0 0 215 0 215 -25 0 -25 0 0 -215z"/>
<path d="M1990 1025 l0 -215 25 0 c25 0 25 1 25 83 1 67 4 86 21 106 11 13 21
22 22 20 2 -2 32 -50 68 -106 59 -96 66 -103 96 -103 l32 0 -72 110 c-40 61
-76 117 -81 124 -7 10 12 39 68 105 l77 91 -35 0 c-32 0 -40 -7 -103 -89 -37
-49 -73 -98 -80 -108 -10 -14 -12 3 -12 90 l-1 107 -25 0 -25 0 0 -215z"/>
<path d="M2400 1229 c-135 -54 -162 -296 -43 -386 72 -55 201 -37 251 34 79
115 45 304 -65 349 -37 16 -107 17 -143 3z m126 -48 c93 -57 89 -267 -6 -316
-93 -48 -180 27 -180 156 0 138 92 217 186 160z"/>
<path d="M300 748 l0 -148 375 0 375 0 0 148 0 147 -375 0 -375 0 0 -147z
m737 -65 c-2 -38 -3 -7 -3 67 0 74 1 105 3 68 2 -38 2 -98 0 -135z m-39 65 l3
-108 -228 -1 c-372 -1 -427 1 -435 14 -4 7 -6 39 -3 72 2 33 4 77 5 98 l0 37
328 -2 327 -3 3 -107z"/>
<path d="M1790 410 l0 -200 25 0 25 0 0 200 0 200 -25 0 -25 0 0 -200z"/>
<path d="M1303 593 c-41 -8 -73 -52 -73 -97 0 -50 27 -80 103 -115 52 -25 67
-55 49 -96 -14 -31 -54 -41 -106 -27 -44 11 -56 9 -56 -14 0 -33 108 -46 161
-18 36 18 63 74 54 114 -8 35 -36 61 -102 94 -68 34 -80 67 -38 104 28 23 50
25 97 7 20 -8 37 20 22 35 -11 11 -82 20 -111 13z"/>
<path d="M301 373 c0 -87 3 -152 6 -145 4 9 88 12 374 12 l369 0 0 145 0 145
-375 0 -375 0 1 -157z m736 -55 c-1 -40 -3 -10 -3 67 0 77 1 110 3 73 2 -37 2
-100 0 -140z m-39 170 c13 -17 16 -183 3 -207 -10 -18 -25 -19 -313 -20 -167
0 -315 2 -330 5 l-28 6 0 107 c0 59 3 111 7 114 3 4 151 7 328 7 246 0 325 -3
333 -12z"/>
<path d="M1525 457 c-60 -60 -59 -155 1 -215 32 -32 38 -34 85 -30 70 7 110
46 117 116 9 102 -37 162 -126 162 -36 0 -50 -6 -77 -33z m138 -40 c25 -33 25
-102 -1 -136 -13 -18 -30 -27 -54 -29 -49 -4 -78 32 -78 97 0 99 80 140 133
68z"/>
<path d="M1933 480 c-15 -6 -20 -15 -16 -28 4 -19 7 -19 44 -4 35 13 41 13 64
-2 26 -17 36 -64 13 -63 -51 2 -80 -6 -107 -29 -25 -21 -31 -33 -31 -65 0 -73
74 -105 134 -58 l26 20 0 -20 c0 -15 6 -21 21 -21 21 0 21 4 17 116 -3 112 -4
117 -31 140 -30 25 -90 32 -134 14z m117 -162 c0 -40 -25 -68 -60 -68 -34 0
-54 23 -46 53 6 27 38 45 79 46 24 1 27 -3 27 -31z"/>
<path d="M2176 353 c2 -129 4 -138 22 -141 19 -3 20 4 24 98 3 92 5 104 26
120 13 11 30 16 37 13 11 -4 15 2 15 21 0 43 -51 31 -78 -19 -10 -18 -11 -17
-12 13 0 24 -4 32 -18 32 -17 0 -18 -10 -16 -137z"/>
</g>
</svg>
